<svg width="160" height="80" viewBox="0 0 160 80" fill="none" xmlns="http://www.w3.org/2000/svg">
<g id="Vector">
<path d="M100.041 0.324451C98.5438 0.50448 97.5689 0.74452 96.0978 1.30861C93.7999 2.18476 92.2592 2.89887 86.3316 5.83935C81.2396 8.35977 78.3323 9.55396 73.9279 10.9282C72.2045 11.4623 71.9695 11.5583 71.9695 11.7323C71.9695 11.9364 72.6484 12.3384 73.1968 12.4584C73.9802 12.6325 74.955 12.6805 76.1388 12.6145C77.34 12.5425 78.1147 12.4224 79.1592 12.1464C80.1167 11.8883 82.7889 10.9522 84.3731 10.3161C86.0705 9.63198 89.1431 8.21574 90.4661 7.50763C91.7631 6.81151 93.3386 5.76734 93.9827 5.17924C94.3048 4.8852 94.5398 4.72917 94.6442 4.72917C94.8096 4.72917 94.8183 4.76518 94.7922 5.26926C94.6616 7.50763 96.3329 9.51196 99.0051 10.3461C100.006 10.6581 100.772 10.7662 102.043 10.7662C102.67 10.7722 103.227 10.7602 103.296 10.7482C103.54 10.7122 103.479 10.9282 103.174 11.1802C102.809 11.4863 102.748 11.6303 102.809 12.0564C102.905 12.7165 103.775 13.6526 104.881 14.2947C107.118 15.5849 109.912 16.029 112.331 15.4709C113.002 15.3149 113.62 15.1169 113.689 15.0389C113.759 14.9608 113.585 10.4421 113.506 10.3881C113.472 10.3641 113.15 10.4001 112.793 10.4661C111.861 10.6401 110.382 10.6821 109.668 10.5501C108.98 10.4301 108.51 10.2681 108.023 9.99804C107.257 9.56596 106.7 8.76783 106.7 8.09572V7.72966L107.666 7.06956C108.71 6.34944 109.311 5.79135 109.598 5.25726C109.877 4.72317 109.859 3.79902 109.555 3.21092C109.05 2.23876 108.04 1.30261 107.065 0.900546C106.412 0.630502 105.472 0.396463 104.55 0.288445C103.479 0.162425 101.26 0.174426 100.041 0.324451Z" fill="white"/>
<path d="M127.368 0.288463C125.836 0.486495 124.922 0.792545 124.051 1.39864C122.928 2.17877 122.241 3.18094 122.162 4.13509C122.075 5.19727 122.563 5.89338 124.208 7.00956L125.27 7.74168V8.07174C125.27 8.76185 124.721 9.55998 123.947 9.99805C123.477 10.2681 122.763 10.4961 122.136 10.5861C121.492 10.6762 119.995 10.6222 119.177 10.4721C118.82 10.4061 118.498 10.3701 118.454 10.3941C118.385 10.4421 118.211 14.9609 118.28 15.0329C118.35 15.1169 118.968 15.3149 119.638 15.4709C122.023 16.023 124.669 15.621 126.976 14.3548C128.099 13.7427 129.056 12.7345 129.161 12.0684C129.222 11.6303 129.169 11.4863 128.795 11.1802C128.49 10.9282 128.429 10.7122 128.673 10.7482C128.743 10.7602 129.309 10.7722 129.927 10.7662C130.762 10.7662 131.232 10.7362 131.72 10.6462C134.34 10.1781 136.194 8.85786 136.951 6.92555C137.082 6.58349 137.134 6.25344 137.151 5.59933C137.169 4.7952 137.177 4.72919 137.334 4.72919C137.43 4.72919 137.656 4.87921 137.917 5.11925C138.805 5.94739 140.154 6.81753 142.165 7.8617C145.612 9.656 150.303 11.5223 153.211 12.2604C154.273 12.5245 154.934 12.5905 156.649 12.5905C157.963 12.5905 158.294 12.5725 158.729 12.4765C159.321 12.3384 160 11.9424 160 11.7323C160 11.5583 159.765 11.4623 158.042 10.9282C153.42 9.48197 150.591 8.30577 144.567 5.31129C139.71 2.89889 137.9 2.06475 135.671 1.23062C133.669 0.480494 132.39 0.26446 129.752 0.228454C128.499 0.210451 127.829 0.222452 127.368 0.288463Z" fill="white"/>
<path d="M113.183 9.9991C113.183 10.4072 113.217 11.7514 113.27 12.9876C113.348 15.1359 113.418 17.1283 113.618 22.9372C113.67 24.4075 113.748 26.4838 113.792 27.558C113.827 28.6321 113.844 29.5203 113.835 29.5323C113.775 29.5683 111.929 29.1722 110.954 28.9082C108.961 28.3741 107.621 27.816 106.611 27.1079C105.888 26.6038 105.427 26.0877 105.114 25.4276C104.905 25.0016 104.879 24.8515 104.879 24.0954C104.87 23.6273 104.896 23.2253 104.931 23.2013C104.966 23.1773 105.166 23.2913 105.384 23.4593C106.062 23.9814 107.159 24.2394 108.474 24.1854C109.483 24.1434 110.632 23.7533 111.555 23.1352C112.042 22.8052 112.312 22.4811 112.312 22.2111C112.312 21.851 111.372 21.437 110.075 21.2329C109.266 21.1069 107.647 21.1069 106.759 21.2329C104.087 21.611 102.058 22.9192 101.423 24.6775C101.258 25.1336 101.284 26.1717 101.467 26.6578C101.954 27.93 103.434 29.3043 105.479 30.4084C106.315 30.8585 107.681 31.4826 108.552 31.8067L109.187 32.0407L108.726 32.2747C106.115 33.565 104.635 35.0052 104.113 36.7395C103.878 37.5076 103.93 38.8698 104.217 39.5899C104.461 40.208 105.044 41.0542 105.627 41.6423C106.48 42.5004 108.36 43.7126 110.206 44.5888L110.841 44.8888L110.032 45.2789C106.089 47.1752 104.696 49.3235 105.653 52.03C106.35 54.0043 107.951 55.7446 110.301 57.0888L110.78 57.3648L110.232 57.8029C109.579 58.325 109.179 58.7451 108.778 59.3272C107.899 60.6054 107.864 62.0576 108.691 63.3418C109.274 64.254 110.684 65.2621 112.991 66.4203C113.009 66.4263 112.565 66.7564 111.99 67.1464C110.397 68.2446 109.962 68.8627 109.892 70.1169C109.858 70.741 109.884 70.8791 110.084 71.3651C110.336 71.9712 110.615 72.3793 111.102 72.8654C111.651 73.4055 111.929 73.6095 112.068 73.5675C112.19 73.5375 112.19 73.4655 112.042 72.9134C111.729 71.7792 111.659 71.2271 111.764 70.759C111.912 70.1109 112.303 69.6248 113.13 69.0548C113.757 68.6227 115.08 67.9146 115.159 67.9686C115.193 67.9866 115.298 70.633 115.446 75.1458C115.489 76.646 115.559 78.2903 115.585 78.7943L115.637 79.7125L115.959 79.6945L116.273 79.6765L116.334 79.0164C116.36 78.6503 116.429 76.9641 116.49 75.2658C116.647 70.255 116.743 68.0526 116.786 68.0226C116.873 67.9626 118.205 68.6527 118.84 69.0848C119.572 69.5888 119.902 69.9609 120.111 70.531C120.285 70.9991 120.242 71.5932 119.937 72.7154C119.824 73.1414 119.746 73.5135 119.763 73.5375C119.859 73.6395 120.033 73.5735 120.329 73.3275C121.112 72.6794 121.53 72.1333 121.852 71.3651C122.052 70.8791 122.078 70.741 122.044 70.1169C121.974 68.8507 121.53 68.2386 119.937 67.1524C119.328 66.7384 118.927 66.4203 118.98 66.3903C119.023 66.3663 119.389 66.1683 119.798 65.9583C120.825 65.4302 122.348 64.398 122.757 63.9479C123.497 63.1438 123.819 62.3697 123.819 61.4035C123.819 60.0353 123.193 58.9791 121.661 57.7669L121.112 57.3348L121.791 56.9388C124.124 55.5886 125.595 53.9743 126.283 52.03C127.249 49.3115 125.9 47.2352 121.922 45.2849L121.104 44.8888L122.044 44.4387C125.229 42.9025 126.648 41.7143 127.493 39.866C128.789 37.0335 127.44 34.4711 123.593 32.4788L122.749 32.0407L123.384 31.8067C124.255 31.4766 125.621 30.8585 126.457 30.4084C128.511 29.2983 129.973 27.942 130.469 26.6578C130.704 26.0457 130.678 25.0136 130.4 24.4255C129.825 23.2133 128.633 22.2711 126.979 21.701C125.76 21.2869 125.047 21.1789 123.497 21.1729C122.374 21.1729 122.087 21.1909 121.469 21.3109C120.607 21.479 119.746 21.839 119.659 22.0671C119.458 22.6132 120.381 23.3453 121.948 23.8794C122.653 24.1254 122.844 24.1614 123.454 24.1854C124.777 24.2394 125.874 23.9814 126.552 23.4593C126.77 23.2913 126.97 23.1773 127.005 23.2013C127.031 23.2253 127.075 23.5253 127.092 23.8674C127.223 26.1837 125.29 27.78 120.99 28.9022C119.937 29.1782 118.153 29.5683 118.101 29.5323C118.083 29.5203 118.109 28.6021 118.144 27.498C118.188 26.3938 118.266 24.2994 118.318 22.8472C118.527 16.7082 118.588 15.0519 118.666 12.9276C118.719 11.6914 118.753 10.3652 118.753 9.96909V9.25498H113.183V9.9991ZM114.218 39.8C114.262 41.0722 114.279 42.1224 114.262 42.1344C114.166 42.2064 112.869 41.5042 112.095 40.9702C110.798 40.082 110.31 39.3559 110.31 38.3297C110.319 36.9135 111.346 35.8033 113.487 34.9152L114.01 34.6991L114.07 36.0974C114.105 36.8595 114.166 38.5278 114.218 39.8ZM118.797 35.0712C120.677 35.9113 121.626 36.9915 121.626 38.2997C121.626 39.6679 120.642 40.7421 118.353 41.8703C117.987 42.0563 117.674 42.1944 117.657 42.1884C117.639 42.1704 117.665 41.2702 117.848 36.3614C117.892 35.2092 117.935 34.7592 118.005 34.7592C118.066 34.7592 118.423 34.8972 118.797 35.0712ZM114.645 51.952C114.688 53.2062 114.706 54.2443 114.697 54.2563C114.654 54.2923 113.583 53.7403 113.191 53.4702C112.182 52.7741 111.616 51.8739 111.616 50.9498C111.616 49.9536 112.19 49.2335 113.705 48.3454L114.445 47.9073L114.506 48.7894C114.54 49.2755 114.601 50.6978 114.645 51.952ZM118.571 48.5554C120.398 49.7976 120.781 51.0278 119.78 52.462C119.493 52.8761 119.293 53.0681 118.719 53.4522C118.057 53.9023 117.308 54.3103 117.239 54.2563C117.204 54.2323 117.335 50.3977 117.413 48.8795L117.465 47.9013L117.726 48.0273C117.866 48.0993 118.249 48.3334 118.571 48.5554ZM118.031 60.7074C118.614 61.2955 118.614 61.8236 118.048 62.5917C117.744 63.0118 117.03 63.7379 116.925 63.7439C116.899 63.7439 116.908 63.1438 116.934 62.4117C116.969 61.6736 116.995 60.8334 117.004 60.5394L117.013 60.0053L117.387 60.2153C117.587 60.3293 117.883 60.5514 118.031 60.7074ZM114.967 61.4755C115.002 62.2436 115.011 63.0778 114.993 63.3238L114.967 63.7739L114.54 63.3838C114.305 63.1678 113.975 62.7957 113.809 62.5497C113.418 61.9856 113.374 61.4155 113.696 60.9834C113.879 60.7314 114.715 60.0833 114.845 60.0833C114.88 60.0833 114.932 60.7134 114.967 61.4755Z" fill="white"/>
<path d="M112.778 9.12396H119.158L118.52 21.5727L116.763 79.7977H114.967L113.416 21.5727L112.778 9.12396Z" fill="white"/>
<path d="M114.762 0.32043C111.492 0.972364 110.378 4.16962 112.798 5.98671C113.702 6.66638 114.734 6.99235 115.958 6.99235C118.433 6.99235 120.424 5.48042 120.424 3.59397C120.424 1.33994 117.666 -0.255214 114.762 0.32043Z" fill="white"/>
<path d="M108.462 32.5399C110.887 30.5637 116.434 29.6205 118.904 29.396C120.514 31.2674 123.599 37.7062 120.701 35.7961C115.761 32.5399 112.804 35.0101 111.606 35.7961C109.547 35.5341 106.037 34.5161 108.462 32.5399Z" fill="white"/>
<path d="M110.559 58.5485C112.071 56.3898 116.138 54.7416 117.983 54.1873C119.527 55.6815 122.972 61.1678 120.439 59.8195C116.121 57.5209 114.287 60.2087 113.508 61.1C111.894 61.1489 109.046 60.7071 110.559 58.5485Z" fill="white"/>
<path d="M108.046 47.037C110.12 44.6054 115.465 42.7375 117.877 42.1075C119.788 43.7807 123.929 49.9327 120.733 48.4273C115.286 45.8608 112.767 48.8883 111.711 49.893C109.625 49.9542 105.972 49.4687 108.046 47.037Z" fill="white"/>
<path d="M111.83 67.5725C112.908 66.0454 116.247 64.0168 117.781 63.1934C119.428 63.68 122.16 64.9001 119.915 65.8882C117.669 66.8763 114.862 68.0965 113.739 68.583L111.83 67.5725Z" fill="white"/>
<path d="M91.7233 8.13928C91.5492 8.2233 90.9834 8.54135 90.4699 8.8474C86.2657 11.3738 83.3062 12.802 80.0334 13.8762C79.2326 14.1403 78.4753 14.3923 78.3535 14.4283C78.0923 14.5183 77.9269 14.7944 78.0575 14.9384C78.1097 14.9924 78.3361 15.1064 78.5798 15.1904C78.9802 15.3345 79.0846 15.3405 80.399 15.3405C82.3052 15.3345 82.958 15.2204 84.8295 14.5663C87.11 13.7742 89.5037 12.676 92.0279 11.2778C92.9767 10.7557 93.351 10.5097 93.4816 10.3236C93.6818 10.0416 93.7079 10.1136 93.1508 9.28547C93.0028 9.05743 92.8113 8.67937 92.7243 8.44533C92.585 8.04327 92.5589 8.01926 92.3152 8.00126C92.1498 7.98926 91.9409 8.03727 91.7233 8.13928Z" fill="white"/>
<path d="M139.393 8.03727C139.376 8.06127 139.289 8.27131 139.219 8.49334C139.141 8.72138 138.923 9.13545 138.732 9.41749C138.34 9.98158 138.314 10.1376 138.54 10.4017C138.775 10.6777 140.977 11.8839 143.04 12.8621C145.329 13.9482 147.984 14.9444 149.281 15.1964C149.908 15.3165 150.195 15.3405 151.483 15.3405C152.894 15.3405 152.981 15.3345 153.39 15.1904C153.633 15.1064 153.86 14.9924 153.912 14.9384C154.043 14.7944 153.877 14.5183 153.616 14.4283C153.494 14.3923 152.711 14.1283 151.875 13.8522C148.689 12.802 145.843 11.4398 141.917 9.09944C141.256 8.70338 140.542 8.28931 140.324 8.18129C139.959 8.00126 139.498 7.92925 139.393 8.03727Z" fill="white"/>
<path d="M92.2891 11.7879C89.8606 13.4201 88.0327 14.3743 84.9862 15.5745C84.2289 15.8805 84.0548 16.0126 84.1331 16.2406C84.255 16.5706 86.6661 16.6487 88.0414 16.3666C89.347 16.0966 90.8616 15.5085 92.4545 14.6563C93.4729 14.1102 96.3105 12.436 96.4062 12.328C96.5368 12.1719 96.3192 11.9739 95.7882 11.7699C95.5097 11.6618 95.0222 11.3978 94.7089 11.1938C94.352 10.9477 94.0648 10.8097 93.9429 10.8097C93.8036 10.8097 93.3075 11.1038 92.2891 11.7879Z" fill="white"/>
<path d="M135.889 11.2178C135.541 11.4578 135.123 11.6859 134.827 11.7819C134.322 11.9499 134.183 12.0939 134.279 12.31C134.383 12.526 138.23 14.7104 139.649 15.3525C141.46 16.1746 142.879 16.5226 144.463 16.5347C145.69 16.5407 146.491 16.4326 146.561 16.2406C146.639 16.0126 146.465 15.8865 145.62 15.5445C144.454 15.0824 141.93 13.9062 140.72 13.2581C140.145 12.9521 139.057 12.28 138.3 11.7579C137.186 10.9897 136.881 10.8097 136.69 10.8157C136.516 10.8157 136.298 10.9297 135.889 11.2178Z" fill="white"/>
<path d="M96.9198 12.586C95.7186 13.6662 94.7089 14.3803 92.5763 15.6465C91.2097 16.4567 90.9486 16.6547 91.0269 16.8347C91.1053 17.0207 91.2794 17.0928 91.8452 17.1588C92.3674 17.2248 93.2378 17.1708 93.8471 17.0447C94.3868 16.9247 95.7882 16.3966 96.5629 16.0126C98.1645 15.2204 99.505 14.2363 100.079 13.4202C100.245 13.1921 100.375 12.9701 100.375 12.9281C100.375 12.766 100.106 12.688 99.4005 12.646C98.7564 12.616 97.7467 12.49 97.3202 12.4C97.2157 12.376 97.0939 12.43 96.9198 12.586Z" fill="white"/>
<path d="M132.973 12.46C132.738 12.508 132.146 12.574 131.667 12.61C130.379 12.712 130.362 12.718 130.37 13.0181C130.397 13.8102 133.469 15.8805 135.872 16.7147C137.073 17.1287 138.083 17.2848 138.875 17.1708C139.406 17.0987 139.588 17.0207 139.667 16.8347C139.745 16.6547 139.475 16.4506 138.074 15.6225C136.559 14.7344 134.766 13.4922 134.105 12.8861C133.817 12.622 133.548 12.4 133.495 12.394C133.452 12.388 133.217 12.418 132.973 12.46Z" fill="white"/>
<path d="M0 46.2655V33.546C0 29.5217 2.01213 27.5096 6.03638 27.5096H15.6299L18.0373 29.378V32.1806H6.25197C5.53335 32.1806 5.17404 32.5399 5.17404 33.2585V46.5529C5.17404 47.2715 5.53335 47.6309 6.25197 47.6309H18.0373V50.4335L15.6299 52.3019H6.03638C2.01213 52.3019 0 50.2897 0 46.2655Z" fill="white"/>
<path d="M28.3143 52.3019C24.4338 52.3019 22.4935 50.3975 22.4935 46.5889C22.4935 42.7802 24.4338 40.8759 28.3143 40.8759H33.2728V38.7919C33.2728 38.0253 32.8895 37.6421 32.123 37.6421H24.5057V34.9473L26.6615 33.3304H32.4105C36.291 33.3304 38.2313 35.2706 38.2313 39.1512V52.3019H28.3143ZM27.452 46.8404C27.452 47.6069 27.8353 47.9902 28.6018 47.9902H33.2728V44.6845H28.6018C27.8353 44.6845 27.452 45.0678 27.452 45.8343V46.8404Z" fill="white"/>
<path d="M44.1888 52.3019V35.7737C45.075 34.1448 46.7758 33.3304 49.2909 33.3304H53.1715L55.3273 34.9473V37.6421H50.6204C49.9018 37.6421 49.4107 37.8217 49.1472 38.181V52.3019H44.1888Z" fill="white"/>
<path d="M59.6497 46.4811V39.1512C59.6497 35.2706 61.5899 33.3304 65.4705 33.3304H70.1415C74.022 33.3304 75.9623 35.2706 75.9623 39.1512V44.6486H64.6081V46.8404C64.6081 47.6069 64.9914 47.9902 65.7579 47.9902H75.2437V50.685L73.0878 52.3019H65.4705C61.5899 52.3019 59.6497 50.3616 59.6497 46.4811ZM64.6081 40.8399H71.0038V38.7919C71.0038 38.0253 70.6206 37.6421 69.854 37.6421H65.7579C64.9914 37.6421 64.6081 38.0253 64.6081 38.7919V40.8399Z" fill="white"/>
<path d="M81.6405 46.4811V39.1512C81.6405 35.2706 83.5807 33.3304 87.4613 33.3304H92.9946V25.713H97.9531V52.3019H87.4613C83.5807 52.3019 81.6405 50.3616 81.6405 46.4811ZM86.5989 46.8404C86.5989 47.6069 86.9822 47.9902 87.7487 47.9902H92.9946V37.6421H87.7487C86.9822 37.6421 86.5989 38.0253 86.5989 38.7919V46.8404Z" fill="white"/>
<path d="M133.329 52.3019V33.3304H143.82C147.701 33.3304 149.641 35.2706 149.641 39.1512V52.3019H144.683V38.7919C144.683 38.0253 144.3 37.6421 143.533 37.6421H138.287V52.3019H133.329Z" fill="white"/>
</g>
</svg>