<svg width="248" height="78" viewBox="0 0 248 78" fill="none" xmlns="http://www.w3.org/2000/svg">
<path d="M198.068 72.0849L198.077 61.2471L188.825 61.2396L185.034 49.9206L213.32 7.70771L199.442 7.69652L179.262 36.3686L166.071 4.16325L145.248 10.5217L148.545 20.4059L158.13 17.5448L180.555 72.0708L198.068 72.0849Z" fill="#E40919"/>
<path d="M242.387 71.9125C240.811 71.9125 239.482 71.3873 238.398 70.3369C237.315 69.2864 236.773 67.9569 236.773 66.3484C236.773 64.6743 237.315 63.3448 238.398 62.36C239.482 61.3424 240.811 60.8336 242.387 60.8336C243.962 60.8336 245.292 61.3424 246.375 62.36C247.458 63.3448 248 64.6743 248 66.3484C248 67.9569 247.458 69.2864 246.375 70.3369C245.292 71.3873 243.962 71.9125 242.387 71.9125Z" fill="white"/>
<path d="M203.884 71.4693V37.0013H219.641C222.792 37.0013 225.5 37.5102 227.765 38.5278C230.063 39.5454 231.836 41.0226 233.083 42.9594C234.331 44.8633 234.954 47.1284 234.954 49.7545C234.954 52.3478 234.331 54.5964 233.083 56.5004C231.836 58.4043 230.063 59.8815 227.765 60.9319C225.5 61.9496 222.792 62.4584 219.641 62.4584H209.3L213.634 58.2238V71.4693H203.884ZM213.634 59.2578L209.3 54.777H219.05C221.085 54.777 222.595 54.3338 223.58 53.4475C224.598 52.5612 225.106 51.3302 225.106 49.7545C225.106 48.146 224.598 46.8986 223.58 46.0122C222.595 45.1259 221.085 44.6828 219.05 44.6828H209.3L213.634 40.2019V59.2578Z" fill="white"/>
<path d="M143.344 71.4693V37.0013H153.094V63.7386H169.54V71.4693H143.344Z" fill="white"/>
<path d="M119.223 50.3454H135.226V57.6329H119.223V50.3454ZM119.912 63.9356H137.934V71.4693H110.261V37.0013H137.294V44.5351H119.912V63.9356Z" fill="white"/>
<path d="M83.8695 71.4693L69.1467 37.0013H79.6841L92.0925 66.8407H85.8883L98.5922 37.0013H108.243L93.4713 71.4693H83.8695Z" fill="white"/>
<path d="M49.6423 50.3454H65.6453V57.6329H49.6423V50.3454ZM50.3317 63.9356H68.3535V71.4693H40.6807V37.0013H67.7134V44.5351H50.3317V63.9356Z" fill="white"/>
<path d="M0 71.4693V37.0013H16.2984C20.1063 37.0013 23.4546 37.7071 26.3434 39.1187C29.2321 40.5302 31.4807 42.5162 33.0892 45.0767C34.7306 47.6372 35.5512 50.69 35.5512 54.2353C35.5512 57.7478 34.7306 60.8006 33.0892 63.394C31.4807 65.9544 29.2321 67.9404 26.3434 69.352C23.4546 70.7635 20.1063 71.4693 16.2984 71.4693H0ZM9.74951 63.6894H15.9045C17.8741 63.6894 19.5811 63.3283 21.0255 62.6061C22.5026 61.8511 23.6516 60.7678 24.4722 59.3563C25.2929 57.9119 25.7032 56.2049 25.7032 54.2353C25.7032 52.2329 25.2929 50.5259 24.4722 49.1144C23.6516 47.7028 22.5026 46.636 21.0255 45.9138C19.5811 45.1588 17.8741 44.7813 15.9045 44.7813H9.74951V63.6894Z" fill="white"/>
</svg>
