<?xml version="1.0" standalone="no"?>
<!DOCTYPE svg PUBLIC "-//W3C//DTD SVG 20010904//EN"
 "http://www.w3.org/TR/2001/REC-SVG-20010904/DTD/svg10.dtd">
<svg version="1.0" xmlns="http://www.w3.org/2000/svg"
 width="1170.000000pt" height="856.000000pt" viewBox="0 0 1170.000000 856.000000"
 preserveAspectRatio="xMidYMid meet">

<g transform="translate(0.000000,856.000000) scale(0.100000,-0.100000)"
fill="#c8c8c8" stroke="none">
<path d="M5570 7374 c-245 -29 -560 -105 -788 -190 -241 -90 -449 -197 -692
-358 -423 -279 -838 -728 -1065 -1151 -26 -49 -57 -105 -67 -122 l-20 -33 129
0 128 0 30 58 c38 74 178 283 262 390 393 503 958 888 1563 1065 347 101 565
132 920 131 337 -1 581 -36 900 -131 600 -177 1151 -549 1547 -1045 87 -109
216 -297 268 -391 21 -38 43 -71 49 -73 7 -3 64 -3 128 -2 l116 3 -72 130
c-209 378 -508 732 -846 1004 -487 391 -1091 643 -1720 715 -170 20 -605 20
-770 0z"/>
<path d="M795 5329 c-12 -18 7 -29 51 -29 62 0 109 -22 131 -62 17 -31 18 -79
18 -838 0 -848 0 -856 -45 -913 -16 -20 -33 -27 -75 -32 -37 -5 -55 -12 -55
-21 0 -11 54 -14 310 -14 279 0 342 5 311 24 -5 4 -38 9 -73 12 -81 9 -111 24
-134 71 -18 35 -19 71 -22 461 l-4 424 73 -84 c308 -352 683 -737 797 -816
126 -87 125 -87 531 -87 252 0 355 3 358 11 2 7 -15 13 -42 16 -83 10 -100 47
-70 157 19 75 136 403 148 419 7 9 69 12 247 12 178 0 240 -3 247 -12 13 -16
213 -525 213 -540 0 -6 -7 -20 -17 -30 -9 -10 -13 -21 -9 -26 4 -4 113 -8 242
-10 197 -3 234 -1 234 11 0 10 -17 17 -51 21 -108 15 -166 69 -240 225 -42 87
-185 442 -410 1014 -71 180 -136 341 -144 357 -17 34 -40 39 -54 13 -5 -10
-131 -339 -280 -732 -149 -393 -284 -737 -299 -764 -36 -67 -102 -111 -152
-102 -141 26 -335 192 -852 729 -153 159 -278 294 -278 300 0 11 345 357 590
592 144 138 212 182 310 204 85 18 90 20 90 35 0 11 -45 13 -245 11 -134 -1
-247 -4 -250 -8 -3 -3 8 -19 25 -36 16 -17 30 -37 30 -45 0 -27 -63 -100 -303
-349 -133 -139 -285 -297 -338 -352 l-96 -100 -8 162 c-8 183 2 558 16 615 12
45 56 77 109 77 40 0 66 13 56 28 -7 12 -584 14 -591 1z m2566 -909 c54 -155
99 -283 99 -285 0 -3 -94 -5 -210 -5 -115 0 -210 3 -210 6 0 5 175 526 196
584 8 24 16 5 125 -300z"/>
<path d="M7571 5058 c-5 -13 -29 -196 -55 -408 -126 -1034 -135 -1099 -156
-1139 -20 -40 -50 -56 -120 -63 -14 -2 -25 -7 -25 -13 0 -15 477 -14 482 2 3
7 -16 14 -53 19 -72 9 -104 36 -104 91 -1 57 94 1043 100 1043 3 0 61 -111
128 -247 202 -405 441 -867 466 -898 l23 -29 19 22 c10 12 147 283 304 601
157 319 287 582 290 585 3 3 30 -230 59 -517 29 -287 55 -540 58 -563 4 -34 1
-45 -18 -63 -38 -35 -14 -44 129 -52 200 -10 832 -5 834 6 2 5 -19 13 -47 18
-27 4 -55 13 -61 18 -19 16 -22 58 -9 118 20 83 145 435 159 443 6 5 119 7
251 5 l239 -2 103 -260 c56 -143 103 -271 103 -284 0 -13 -8 -30 -17 -37 -10
-7 -14 -16 -10 -21 13 -12 472 -10 474 2 1 6 -23 15 -55 21 -73 13 -91 23
-140 79 -66 75 -128 217 -457 1055 -71 179 -144 362 -163 408 -45 109 -60 109
-100 5 -17 -43 -141 -370 -277 -728 -136 -357 -256 -667 -266 -687 -58 -113
-132 -147 -276 -128 -112 15 -136 28 -167 92 -23 48 -34 121 -114 786 -49 403
-92 735 -96 739 -4 4 -14 3 -22 -2 -9 -6 -162 -307 -340 -670 -179 -363 -328
-663 -333 -668 -4 -4 -159 289 -346 650 -186 362 -345 666 -353 676 -20 23
-31 22 -41 -5z m2657 -365 c29 -79 167 -465 182 -510 l19 -53 -214 0 -215 0
100 292 c55 161 100 294 100 295 0 2 4 3 9 3 5 0 14 -12 19 -27z"/>
<path d="M4275 5040 c-7 -12 4 -16 64 -24 24 -4 56 -13 73 -22 59 -30 58 -23
58 -716 0 -384 -4 -659 -10 -698 -14 -88 -34 -113 -98 -124 -33 -6 -52 -14
-52 -23 0 -11 30 -13 163 -13 89 1 241 -4 337 -11 193 -13 406 -7 516 15 404
81 672 418 667 841 -4 435 -287 721 -768 775 -118 13 -942 13 -950 0z m871
-95 c174 -36 289 -99 420 -230 93 -93 149 -194 185 -330 28 -106 30 -306 4
-415 -23 -99 -82 -224 -134 -282 -82 -92 -245 -172 -401 -197 -142 -23 -374
-6 -450 34 -54 28 -72 59 -81 142 -4 43 -8 342 -8 664 -1 465 2 589 12 603 7
10 29 22 47 27 52 13 314 2 406 -16z"/>
<path d="M6345 5041 c-7 -13 2 -18 50 -26 58 -11 75 -22 93 -63 13 -32 16
-106 20 -527 4 -565 -7 -866 -35 -923 -16 -33 -24 -38 -71 -47 -116 -22 -51
-30 238 -30 296 0 361 9 221 31 -96 15 -116 30 -133 101 -19 85 -19 1354 0
1400 15 35 24 40 95 57 99 23 49 31 -212 33 -152 2 -262 -1 -266 -6z"/>
<path d="M2711 3148 c112 -412 301 -802 547 -1128 456 -604 1040 -1012 1753
-1225 326 -97 553 -129 939 -129 354 -1 555 22 835 94 667 173 1259 536 1699
1040 348 398 588 846 725 1348 l20 73 -116 -3 -117 -3 -8 -35 c-39 -164 -144
-424 -254 -630 -199 -375 -490 -724 -829 -992 -393 -312 -877 -531 -1375 -622
-341 -63 -799 -63 -1140 0 -424 77 -852 254 -1211 500 -368 252 -713 624 -936
1009 -117 201 -251 510 -296 680 l-24 90 -116 3 -116 3 20 -73z"/>
<path d="M5065 3139 c-99 -28 -144 -164 -94 -280 26 -60 71 -91 133 -91 67 0
132 40 107 65 -8 8 -19 7 -40 -6 -86 -50 -171 13 -171 126 0 51 31 121 58 136
29 16 84 14 109 -4 18 -13 22 -13 33 0 16 19 5 34 -36 51 -37 16 -55 16 -99 3z"/>
<path d="M6105 3138 c-71 -25 -106 -83 -106 -172 0 -75 23 -137 62 -170 25
-21 38 -24 93 -23 59 2 68 5 101 37 58 57 72 166 31 253 -33 67 -112 100 -181
75z m113 -60 c55 -46 54 -187 -3 -244 -44 -44 -118 -26 -149 35 -18 33 -22
126 -8 161 11 27 48 65 72 72 19 6 67 -7 88 -24z"/>
<path d="M6733 3139 c-82 -25 -126 -124 -103 -235 28 -133 164 -182 257 -92
75 73 64 251 -21 310 -31 22 -92 30 -133 17z m132 -86 c25 -38 29 -137 7 -172
-33 -54 -55 -71 -90 -71 -45 0 -96 50 -106 103 -9 50 10 140 34 162 48 43 119
33 155 -22z"/>
<path d="M7107 3136 c-75 -27 -109 -84 -109 -181 0 -83 31 -144 91 -175 32
-17 114 -14 150 5 31 15 31 16 31 95 l0 80 -60 0 c-53 0 -60 -2 -60 -20 0 -17
7 -20 40 -20 l40 0 0 -49 c0 -53 -8 -61 -61 -61 -75 0 -120 55 -120 145 0 90
42 145 111 145 20 0 46 -7 59 -16 21 -15 24 -15 39 0 15 15 14 17 -8 34 -48
33 -85 38 -143 18z"/>
<path d="M4340 3120 c0 -18 7 -20 55 -20 l55 0 0 -165 0 -165 25 0 25 0 0 165
0 165 55 0 c48 0 55 2 55 20 0 19 -7 20 -135 20 -128 0 -135 -1 -135 -20z"/>
<path d="M4680 2955 l0 -185 105 0 c98 0 105 1 105 20 0 17 -8 19 -82 22 l-83
3 -3 63 -3 62 71 0 c68 0 70 1 70 25 0 24 -2 25 -70 25 l-70 0 0 55 0 55 85 0
c78 0 85 2 85 20 0 19 -7 20 -105 20 l-105 0 0 -185z"/>
<path d="M5290 2955 l0 -185 25 0 c25 0 25 1 25 85 l0 85 85 0 85 0 0 -85 c0
-84 0 -85 25 -85 l25 0 0 185 0 185 -25 0 c-24 0 -25 -2 -25 -74 0 -41 -3 -76
-7 -78 -5 -2 -43 -2 -85 0 l-78 4 0 74 c0 72 -1 74 -25 74 l-25 0 0 -185z"/>
<path d="M5652 2958 c3 -181 3 -183 26 -186 22 -3 22 -3 22 144 l0 148 83
-144 c71 -125 86 -145 110 -148 l27 -3 0 185 0 186 -26 0 -25 0 3 -150 c2
-103 0 -146 -7 -135 -5 8 -44 76 -85 150 -68 123 -77 135 -103 135 l-27 0 2
-182z"/>
<path d="M6390 2955 l0 -185 105 0 c98 0 105 1 105 20 0 18 -7 20 -80 20 l-80
0 0 165 0 165 -25 0 -25 0 0 -185z"/>
<path d="M7365 3028 c51 -105 55 -118 55 -185 0 -71 1 -73 25 -73 24 0 25 2
25 70 0 69 19 123 96 273 14 26 14 27 -11 27 -25 0 -32 -11 -98 -157 -6 -13
-13 -21 -15 -18 -3 3 -22 42 -42 88 -31 70 -40 82 -63 85 l-27 3 55 -113z"/>
</g>
</svg>
