<svg  viewBox="0 0 299 201" fill="none" xmlns="http://www.w3.org/2000/svg">
<path d="M109.679 106H90.5991L71.0951 84.588H42.2631V72.716H74.3811C84.0271 72.716 89.1151 67.204 89.1151 57.24C89.1151 47.276 83.6031 42.4 74.3811 42.4H32.4051V106H19.0491V28.938H74.3811C91.9771 28.938 102.365 39.856 102.365 57.028C102.365 69.748 96.4291 78.758 86.4651 82.574L109.679 106ZM185.564 106H116.664V28.938H185.458V42.4H130.02V92.538H185.564V106ZM182.596 72.504H139.878V61.162H182.596V72.504ZM241.722 106H197.096V28.938H241.722C263.452 28.938 279.246 44.308 279.246 66.674C279.246 89.04 263.452 106 241.722 106ZM210.452 92.538H241.722C255.608 92.538 265.784 81.832 265.784 67.31C265.784 52.788 255.608 42.4 241.722 42.4H210.452V92.538Z" fill="white"/>
<path d="M50.4455 142.72H45.9095L40.9055 124.324L33.4895 141.352C32.9855 142.468 32.2655 143.08 31.1495 143.08C30.0695 143.08 29.2775 142.468 28.8095 141.352L21.4295 124.324L16.4255 142.72H11.9255L18.6575 118.096C18.9815 116.836 19.7015 116.224 20.9255 116.224C21.8975 116.224 22.7975 116.764 23.2295 117.772L31.2935 136.276L39.3575 117.772C39.7895 116.764 40.5815 116.224 41.5535 116.224C42.6695 116.224 43.3895 116.836 43.7495 118.096L50.4455 142.72ZM75.4366 131.164V116.548H79.9006V131.164C79.9006 139.264 75.9046 143.08 65.7526 143.08C55.6726 143.08 51.6406 139.264 51.6406 131.164V116.548H56.3566V131.164C56.3566 136.42 58.6966 138.58 65.8966 138.58C73.0966 138.58 75.4366 136.42 75.4366 131.164ZM106.205 142.72H84.0287V116.548H88.6007V138.148H106.205V142.72ZM118.399 142.72H113.827V121.12H103.891V116.548H128.335V121.12H118.399V142.72ZM136.173 142.72H131.601V116.548H136.173V142.72ZM178.063 142.72H173.527L168.523 124.324L161.107 141.352C160.603 142.468 159.883 143.08 158.767 143.08C157.687 143.08 156.895 142.468 156.427 141.352L149.047 124.324L144.043 142.72H139.543L146.275 118.096C146.599 116.836 147.319 116.224 148.543 116.224C149.515 116.224 150.415 116.764 150.847 117.772L158.911 136.276L166.975 117.772C167.407 116.764 168.199 116.224 169.171 116.224C170.287 116.224 171.007 116.836 171.367 118.096L178.063 142.72ZM204.495 142.72H181.095V116.548H204.459V121.12H185.631V138.148H204.495V142.72ZM203.487 131.344H188.979V127.492H203.487V131.344ZM223.568 142.72H208.412V116.548H223.568C230.948 116.548 236.312 121.768 236.312 129.364C236.312 136.96 230.948 142.72 223.568 142.72ZM212.948 138.148H223.568C228.284 138.148 231.74 134.512 231.74 129.58C231.74 124.648 228.284 121.12 223.568 121.12H212.948V138.148ZM244.876 142.72H240.304V116.548H244.876V142.72ZM282.446 142.72H276.938L273.014 136.132H260.63L262.79 132.424H270.818L264.986 122.632L253.106 142.72H247.886L262.934 117.664C263.474 116.764 264.158 116.188 265.166 116.188C266.174 116.188 266.822 116.764 267.362 117.664L282.446 142.72Z" fill="white"/>
<path d="M63.5814 196.23H55.1614V181.69H63.5814C67.6814 181.69 70.6614 184.59 70.6614 188.81C70.6614 193.03 67.6814 196.23 63.5814 196.23ZM57.6814 193.69H63.5814C66.2014 193.69 68.1214 191.67 68.1214 188.93C68.1214 186.19 66.2014 184.23 63.5814 184.23H57.6814V193.69ZM85.7395 196.23H72.7395V181.69H85.7195V184.23H75.2595V193.69H85.7395V196.23ZM85.1795 189.91H77.1195V187.77H85.1795V189.91ZM95.2953 195.61L86.9353 181.69H90.0353L96.6353 192.89L103.215 181.69H106.135L97.7553 195.61C97.4553 196.11 97.0553 196.43 96.5353 196.43C95.9753 196.43 95.5953 196.11 95.2953 195.61ZM120.7 196.23H107.7V181.69H120.68V184.23H110.22V193.69H120.7V196.23ZM120.14 189.91H112.08V187.77H120.14V189.91ZM135.196 196.23H122.876V181.69H125.416V193.69H135.196V196.23ZM147.197 196.23H143.657C139.597 196.23 136.597 193.03 136.597 188.81C136.597 184.53 139.597 181.69 143.657 181.69H147.197C151.397 181.69 154.317 184.59 154.317 188.81C154.317 193.03 151.337 196.23 147.197 196.23ZM143.657 193.69H147.197C149.877 193.69 151.777 191.67 151.777 188.93C151.777 186.19 149.877 184.23 147.197 184.23H143.657C141.057 184.23 139.137 186.17 139.137 188.93C139.137 191.67 141.037 193.69 143.657 193.69ZM166.592 192.19H160.752V189.73H166.592C168.372 189.73 169.432 188.61 169.432 186.97C169.432 185.29 168.372 184.23 166.592 184.23H158.892V196.23H156.372V181.69H166.592C169.952 181.69 171.912 183.71 171.912 186.89C171.912 190.03 169.952 192.19 166.592 192.19ZM193.359 196.23H190.839L188.059 186.01L183.939 195.47C183.659 196.09 183.259 196.43 182.639 196.43C182.039 196.43 181.599 196.09 181.339 195.47L177.239 186.01L174.459 196.23H171.959L175.699 182.55C175.879 181.85 176.279 181.51 176.959 181.51C177.499 181.51 177.999 181.81 178.239 182.37L182.719 192.65L187.199 182.37C187.439 181.81 187.879 181.51 188.419 181.51C189.039 181.51 189.439 181.85 189.639 182.55L193.359 196.23ZM208.044 196.23H195.044V181.69H208.024V184.23H197.564V193.69H208.044V196.23ZM207.484 189.91H199.424V187.77H207.484V189.91ZM222.8 195.87L212.58 185.59V196.23H210.16V183.03C210.16 182.09 210.66 181.51 211.46 181.51C211.84 181.51 212.16 181.65 212.54 182.03L222.8 192.21V181.57H225.22V194.89C225.22 195.85 224.7 196.41 223.96 196.41C223.54 196.41 223.16 196.23 222.8 195.87ZM234.881 196.23H232.341V184.23H226.821V181.69H240.401V184.23H234.881V196.23Z" fill="white"/>
<path d="M2.41125 163.77H296.121C299.331 163.77 299.341 158.77 296.121 158.77H2.41125C-0.798748 158.77 -0.808748 163.77 2.41125 163.77Z" fill="white"/>
</svg>
