<?xml version="1.0" standalone="no"?>
<!DOCTYPE svg PUBLIC "-//W3C//DTD SVG 20010904//EN"
 "http://www.w3.org/TR/2001/REC-SVG-20010904/DTD/svg10.dtd">
<svg version="1.0" xmlns="http://www.w3.org/2000/svg"
 width="180.000000pt" height="180.000000pt" viewBox="0 0 180.000000 180.000000"
 preserveAspectRatio="xMidYMid meet">

<g transform="translate(0.000000,180.000000) scale(0.100000,-0.100000)"
fill="#FFFFFF" stroke="none">
<path d="M0 900 l0 -900 900 0 900 0 0 900 0 900 -900 0 -900 0 0 -900z m984
135 c3 -8 14 -15 24 -15 18 0 42 -18 42 -32 0 -4 -19 -22 -42 -39 l-43 -31 40
2 c85 4 91 -4 55 -77 -31 -66 -32 -65 -99 17 l-20 25 9 -40 c13 -57 12 -82 -4
-88 -19 -7 -108 25 -114 41 -2 7 13 29 32 48 20 20 35 39 32 41 -3 3 -26 -5
-51 -17 -30 -15 -53 -35 -68 -61 -12 -21 -25 -39 -29 -39 -4 0 -14 13 -23 29
-14 29 -14 30 18 50 17 10 55 25 82 32 67 16 79 29 28 29 -23 0 -48 3 -57 6
-21 8 -20 38 0 55 9 7 20 23 25 36 16 42 47 29 74 -29 l24 -53 0 57 c1 35 6
58 14 61 24 10 45 7 51 -8z m-601 -86 c22 -2 22 -2 0 -6 -21 -4 -23 -10 -23
-63 0 -47 3 -60 18 -64 10 -3 6 -4 -8 -3 -23 2 -25 6 -28 65 -2 34 -8 62 -13
62 -6 0 -3 7 5 16 9 8 17 21 17 27 1 7 4 2 6 -10 3 -15 12 -23 26 -24z m940 0
c21 -2 21 -2 -1 -6 -21 -4 -23 -9 -20 -61 3 -56 4 -57 33 -57 29 0 30 2 33 48
2 27 -2 55 -9 63 -9 11 -7 14 10 14 19 0 21 -5 21 -64 0 -42 4 -66 13 -70 6
-3 -17 -4 -53 -3 l-65 2 -3 63 c-2 34 -7 62 -12 62 -6 0 -2 9 8 20 14 17 18
18 20 5 2 -8 13 -16 25 -16z m-1033 -14 c0 -8 -2 -15 -4 -15 -2 0 -6 7 -10 15
-3 8 -1 15 4 15 6 0 10 -7 10 -15z m160 -43 c0 -32 5 -63 12 -70 9 -9 5 -12
-21 -12 -29 0 -32 2 -21 15 8 10 11 35 8 70 -4 41 -1 55 9 55 9 0 13 -16 13
-58z m81 -6 c-2 -41 1 -61 10 -67 10 -6 3 -9 -20 -9 -29 0 -32 2 -21 15 8 10
11 35 8 70 -4 47 -2 55 11 53 13 -3 15 -15 12 -62z m73 58 c12 -5 16 -20 16
-58 0 -29 5 -57 12 -64 9 -9 4 -12 -22 -11 -19 0 -29 3 -22 6 20 8 16 110 -5
122 -20 11 -4 15 21 5z m623 -16 c-3 -8 -6 -5 -6 6 -1 11 2 17 5 13 3 -3 4
-12 1 -19z m244 -42 c-2 -41 1 -61 10 -67 10 -6 3 -9 -20 -9 -27 0 -32 3 -23
12 16 16 15 100 0 117 -11 10 -8 12 12 9 24 -3 25 -6 21 -62z m73 58 c11 -4
16 -19 16 -51 0 -24 5 -53 10 -64 10 -17 7 -19 -22 -18 -18 0 -27 3 -20 6 7 3
12 25 12 59 0 47 -3 56 -22 64 -16 6 -18 9 -6 9 9 1 23 -2 32 -5z m-1276 -54
c34 -21 42 -50 18 -69 -11 -9 -12 -7 -9 13 4 19 -1 28 -26 40 -24 13 -31 23
-30 44 0 21 2 23 7 9 4 -9 22 -26 40 -37z m937 2 c36 -23 45 -51 21 -71 -11
-9 -12 -7 -9 13 4 19 -1 28 -26 40 -24 13 -31 23 -30 44 1 15 3 20 5 12 3 -8
20 -25 39 -38z m-980 -62 c3 -5 1 -10 -4 -10 -6 0 -11 5 -11 10 0 6 2 10 4 10
3 0 8 -4 11 -10z m940 0 c3 -5 1 -10 -4 -10 -6 0 -11 5 -11 10 0 6 2 10 4 10
3 0 8 -4 11 -10z"/>
</g>
</svg>
